<svg width="218" height="44" viewBox="0 0 218 44" fill="none" xmlns="http://www.w3.org/2000/svg">
<path d="M218 34.4938C216.467 34.4938 214.857 34.4938 213.248 34.4938C213.248 34.1105 213.248 33.8039 213.248 33.4973C213.248 30.1246 213.248 26.6752 213.248 23.3025C213.248 22.9959 213.248 22.766 213.248 22.4593C213.171 19.3932 211.868 18.0135 209.108 18.0135C206.119 18.0135 203.896 20.0065 203.819 22.766C203.743 26.292 203.819 29.8946 203.819 33.4207C203.819 33.7273 203.819 34.1105 203.819 34.4938C202.21 34.4938 200.677 34.4938 199.067 34.4938C199.067 28.1316 199.067 21.6928 199.067 15.254C200.523 15.254 201.98 15.254 203.436 15.254C203.436 16.0972 203.436 16.9404 203.436 18.0902C205.659 15.3307 208.342 14.3342 211.485 14.6408C214.781 14.9474 217.157 16.4038 218 19.8532C218 24.6823 218 29.588 218 34.4938Z" fill="white"/>
<path d="M121.801 34.4936C120.115 34.4936 118.582 34.4936 117.049 34.4936C117.049 28.0548 117.049 21.6927 117.049 15.1772C118.505 15.1772 119.961 15.1772 121.571 15.1772C121.571 15.9437 121.571 16.7869 121.571 17.5534C121.648 17.6301 121.724 17.6301 121.724 17.7067C123.334 15.5604 125.557 14.564 128.163 14.564C130.769 14.564 132.992 15.1772 134.449 17.7067C135.752 16.1737 137.285 15.1005 139.278 14.7939C141.041 14.4873 142.804 14.564 144.567 15.0239C146.79 15.6371 148.246 17.1702 148.323 19.4697C148.476 24.4521 148.399 29.4346 148.399 34.4936C146.943 34.4936 145.41 34.4936 143.724 34.4936C143.724 34.1104 143.724 33.7271 143.724 33.3438C143.724 29.4346 143.724 25.5253 143.647 21.6927C143.57 19.3164 142.651 18.3199 140.581 18.09C138.051 17.7834 136.135 18.8565 135.522 20.9261C135.292 21.7693 135.215 22.6125 135.215 23.4557C135.215 27.135 135.215 30.8143 135.215 34.5703C133.606 34.5703 132.072 34.5703 130.386 34.5703C130.386 34.2637 130.386 33.9571 130.386 33.5738C130.386 29.7412 130.386 25.9852 130.386 22.1526C130.386 20.6962 130.233 19.2398 128.776 18.4732C127.243 17.7067 125.634 17.7834 124.101 18.7032C122.491 19.6997 121.878 21.2327 121.878 23.0724C121.878 26.5218 121.878 29.9711 121.878 33.4972C121.801 33.7271 121.801 34.0337 121.801 34.4936Z" fill="white"/>
<path d="M90.2199 16.6336C88.6868 16.6336 87.0771 16.6336 85.5441 16.6336C85.3908 16.6336 85.0842 16.4036 85.0075 16.2503C83.8577 12.9543 81.4048 11.4979 78.0321 11.4979C74.6594 11.4979 71.9766 12.801 70.2902 15.8671C68.2206 19.7763 68.7572 25.4486 71.3634 28.668C74.2762 32.1941 81.7881 32.8073 84.3176 27.6716C84.7776 26.7517 85.0075 25.6786 85.3908 24.6055C86.9238 24.6055 88.5335 24.6055 90.2199 24.6055C90.0666 27.2116 89.1468 29.4346 87.4604 31.3509C85.6207 33.4205 83.2445 34.5703 80.485 34.9536C76.1158 35.6434 72.0532 34.9536 68.5272 32.0408C64.2347 28.5914 62.7016 22.3059 64.5413 16.7102C66.3043 11.4979 70.9034 8.04849 76.4991 7.74188C79.4885 7.58858 82.4013 7.97184 85.1608 9.42824C88.2269 10.9613 90.1432 13.7208 90.2199 16.6336Z" fill="white"/>
<path d="M167.639 17.4766C167.639 14.1039 167.639 10.9611 167.639 7.7417C169.249 7.7417 170.782 7.7417 172.392 7.7417C172.392 16.6334 172.392 25.5251 172.392 34.4935C170.935 34.4935 169.556 34.4935 167.946 34.4935C167.946 33.7269 167.946 32.9604 167.946 31.9639C165.493 35.03 162.35 35.4133 158.977 34.9534C154.378 34.2635 151.312 30.9674 151.006 26.215C150.929 24.6819 150.929 23.1489 151.236 21.6925C152.232 17.0933 156.141 14.3338 160.817 14.6404C163.5 14.7171 165.723 15.407 167.639 17.4766ZM167.869 24.7586C167.793 23.992 167.716 23.3022 167.563 22.689C167.026 19.8528 164.956 18.0898 162.197 18.0131C159.131 17.8598 156.908 19.3929 156.141 22.229C155.835 23.4555 155.681 24.6819 155.758 25.9084C155.911 29.2044 158.134 31.3507 161.2 31.6573C164.19 31.8873 166.643 30.1243 167.409 27.0582C167.716 26.2916 167.793 25.4484 167.869 24.7586Z" fill="white"/>
<path d="M107.007 32.8074C103.481 35.0303 99.8017 35.7202 95.9691 34.4171C92.903 33.4206 91.5999 30.9677 92.2131 27.9016C92.5964 26.1386 93.6695 24.8355 95.3559 24.3756C97.5021 23.7624 99.8017 23.4558 102.025 23.0725C103.098 22.8425 104.171 22.7659 105.244 22.5359C106.164 22.306 106.854 21.7694 106.93 20.6963C107.007 19.7764 106.547 18.9333 105.551 18.4733C103.481 17.6302 101.411 17.6302 99.4185 18.55C98.422 19.0099 98.1154 19.5465 97.6554 21.0029C96.1224 21.0029 94.5893 21.0029 92.9796 21.0029C93.1329 18.7033 94.1294 16.9403 96.1224 16.0205C100.262 14.0275 104.554 13.9508 108.693 15.8672C110.61 16.7103 111.53 18.32 111.53 20.543C111.53 23.5324 111.53 26.5219 111.53 29.4347C111.53 31.6576 111.53 31.7342 113.829 31.6576C113.829 32.5008 113.829 33.3439 113.829 34.1871C113.829 34.3404 113.599 34.647 113.446 34.647C112.143 34.8003 110.916 35.0303 109.613 34.9537C108.234 34.877 107.314 34.1105 107.007 32.8074ZM106.547 25.1421C104.861 25.3721 103.251 25.602 101.641 25.9086C100.415 26.1386 99.2652 26.3686 98.1154 26.9051C97.1189 27.2884 96.8123 28.2849 96.8123 29.358C96.8889 30.3545 97.5021 30.8911 98.3453 31.1977C100.645 32.0409 102.868 31.8875 104.937 30.6611C105.781 30.2012 106.394 29.4347 106.394 28.4382C106.624 27.2884 106.547 26.1386 106.547 25.1421Z" fill="white"/>
<path d="M196.077 25.9088C193.394 25.9088 190.788 25.9088 188.105 25.9088C185.499 25.9088 182.816 25.9088 180.21 25.9088C179.98 28.2083 181.513 30.5846 183.736 31.2744C186.879 32.2709 189.638 31.2744 191.248 28.4383C192.705 28.4383 194.161 28.4383 195.771 28.4383C195.464 29.9714 194.698 31.1978 193.624 32.2709C189.638 36.1036 181.743 36.0269 177.987 31.9643C174.998 28.7449 174.691 24.8356 176.148 20.9263C177.527 17.0937 180.517 15.0241 184.579 14.6408C189.025 14.1809 192.705 15.6373 195.004 19.6233C196.001 21.5396 196.307 23.6092 196.077 25.9088ZM191.172 23.0726C191.018 19.9299 188.489 17.7836 185.346 18.0136C182.433 18.2435 180.057 20.5431 180.287 23.0726C183.89 23.0726 187.492 23.0726 191.172 23.0726Z" fill="white"/>
<path fill-rule="evenodd" clip-rule="evenodd" d="M48.9811 35.567H36.9466V34.2639H40.4726C40.4726 34.2639 42.3889 33.9573 41.4691 32.1943C41.3924 32.1177 41.0858 32.041 41.0858 32.041H36.1034L28.9747 35.4137V43.0023H42.9255C42.9255 43.0023 48.4445 41.7759 48.9811 35.567Z" fill="white"/>
<path fill-rule="evenodd" clip-rule="evenodd" d="M6.66895 35.567H18.7034V34.2639H15.1774C15.1774 34.2639 13.2611 33.9573 14.1809 32.1943C14.2576 32.1177 14.5642 32.041 14.5642 32.041H19.5466L26.6753 35.4137V43.0023H12.7245C12.7245 43.0023 7.20551 41.7759 6.66895 35.567Z" fill="white"/>
<path fill-rule="evenodd" clip-rule="evenodd" d="M20.0063 30.5076H7.89522V31.8107H11.4212C11.4212 31.8107 13.3376 32.1173 12.4177 33.8803C12.3411 33.9569 12.0345 34.0336 12.0345 34.0336H7.12869L0 30.6609V23.0723H13.9508C13.9508 23.0723 19.3931 24.2987 20.0063 30.5076Z" fill="white"/>
<path fill-rule="evenodd" clip-rule="evenodd" d="M48.9811 7.4353H36.9466V8.73839H40.4726C40.4726 8.73839 42.3889 9.04501 41.4691 10.808C41.3924 10.8847 41.0858 10.9613 41.0858 10.9613H36.1034L28.9747 7.58861V0H42.9255C42.9255 0 48.4445 1.22644 48.9811 7.4353Z" fill="white"/>
<path fill-rule="evenodd" clip-rule="evenodd" d="M6.66895 7.4353H18.7034V8.73839H15.1774C15.1774 8.73839 13.2611 9.04501 14.1809 10.808C14.2576 10.8847 14.5642 10.9613 14.5642 10.9613H19.5466L26.6753 7.58861V0H12.7245C12.7245 0 7.20551 1.22644 6.66895 7.4353Z" fill="white"/>
<path fill-rule="evenodd" clip-rule="evenodd" d="M20.0063 12.4943H7.89522V11.1912H11.4212C11.4212 11.1912 13.3376 10.8846 12.4177 9.12157C12.3411 9.04491 12.0345 8.96826 12.0345 8.96826H7.12869L0 12.341V19.9296H13.9508C13.9508 19.9296 19.3931 18.7031 20.0063 12.4943Z" fill="white"/>
<path fill-rule="evenodd" clip-rule="evenodd" d="M35.9502 12.4943H47.9846V11.1912H44.4586C44.4586 11.1912 42.5423 10.8846 43.4621 9.12157C43.5388 9.04491 43.8454 8.96826 43.8454 8.96826H48.8278L55.9565 12.341V19.9296H42.0824C42.0824 19.9296 36.5634 18.7031 35.9502 12.4943Z" fill="white"/>
<path fill-rule="evenodd" clip-rule="evenodd" d="M35.9502 30.5076H47.9846V31.8107H44.4586C44.4586 31.8107 42.5423 32.1173 43.4621 33.8803C43.5388 33.9569 43.8454 34.0336 43.8454 34.0336H48.8278L55.9565 30.6609V23.0723H42.0824C42.0824 23.0723 36.5634 24.2987 35.9502 30.5076Z" fill="white"/>
</svg>
