<svg width="1364" height="467" viewBox="0 0 1364 467" fill="none" xmlns="http://www.w3.org/2000/svg">
<path d="M467 233.5C467 362.458 362.458 467 233.5 467C104.542 467 0 362.458 0 233.5C0 104.542 104.542 0 233.5 0C362.458 0 467 104.542 467 233.5Z" fill="#3AA2EB"/>
<path d="M577.676 312H647.426C677.426 312 695.426 294.75 695.426 267C695.426 247.5 680.676 228.75 662.926 226C677.926 223 692.176 208.75 692.176 187.75C692.176 161.5 673.926 145.25 646.176 145.25H577.676V312ZM591.926 220V158.25H644.426C665.926 158.25 677.176 172.25 677.176 189.25C677.176 206.5 665.926 220 644.426 220H591.926ZM591.926 299V233H645.426C668.676 233 680.426 249 680.426 266C680.426 286.25 667.426 299 645.426 299H591.926Z" fill="#3AA2EB"/>
<path d="M723.74 251.5C723.74 288.75 748.99 315 784.24 315C804.24 315 819.49 308 831.49 295.5L824.74 287C814.24 298 800.49 303.75 784.99 303.75C756.74 303.75 739.24 282 737.99 255.75H838.99V252.25C838.99 217.5 818.74 188.25 781.99 188.25C748.49 188.25 723.74 216.5 723.74 251.5ZM781.74 199.5C811.99 199.5 825.49 225 825.74 245.5H737.99C738.99 224.5 753.24 199.5 781.74 199.5Z" fill="#3AA2EB"/>
<path d="M949.336 312H962.336V227C962.336 200 942.836 188.25 918.086 188.25C898.336 188.25 884.336 195 871.836 208.75L879.086 217.5C890.086 205 901.836 199.75 916.836 199.75C934.836 199.75 949.336 209.75 949.336 227.5V252C938.586 240.25 925.086 235 908.336 235C887.336 235 866.086 248.5 866.086 274.75C866.086 300.75 887.586 315 908.336 315C925.086 315 938.586 309.5 949.336 297.75V312ZM949.336 288.25C940.836 299.25 927.336 304.75 912.836 304.75C892.836 304.75 879.836 292 879.836 275C879.836 258 892.836 245 912.836 245C927.336 245 940.836 250.75 949.336 261.75V288.25Z" fill="#3AA2EB"/>
<path d="M995.957 251.5C995.957 286.75 1019.21 315 1054.71 315C1075.46 315 1087.71 306.75 1097.46 294.25L1088.46 286.25C1079.46 298.25 1068.71 303.25 1055.46 303.25C1027.21 303.25 1009.96 280.5 1009.96 251.5C1009.96 222.5 1027.21 200 1055.46 200C1068.71 200 1079.46 204.75 1088.46 216.75L1097.46 208.75C1087.71 196.5 1075.46 188.25 1054.71 188.25C1019.21 188.25 995.957 216.25 995.957 251.5Z" fill="#3AA2EB"/>
<path d="M1177.49 315C1213.24 315 1235.74 286.75 1235.74 251.5C1235.74 216.25 1213.24 188.25 1177.49 188.25C1142.24 188.25 1119.49 216.25 1119.49 251.5C1119.49 286.75 1142.24 315 1177.49 315ZM1177.49 303.25C1149.49 303.25 1133.49 278.5 1133.49 251.5C1133.49 224.75 1149.49 200 1177.49 200C1205.99 200 1221.74 224.75 1221.74 251.5C1221.74 278.5 1205.99 303.25 1177.49 303.25Z" fill="#3AA2EB"/>
<path d="M1350.81 312H1363.81V227.5C1363.81 200.25 1350.31 188.25 1325.81 188.25C1308.31 188.25 1291.06 199 1282.31 209.5V191.25H1269.31V312H1282.31V220.75C1290.06 210 1306.06 200 1321.56 200C1339.06 200 1350.81 207 1350.81 230.5V312Z" fill="#3AA2EB"/>
<mask id="mask0" mask-type="alpha" maskUnits="userSpaceOnUse" x="0" y="0" width="467" height="467">
<path d="M467 233.5C467 362.458 362.458 467 233.5 467C104.542 467 0 362.458 0 233.5C0 104.542 104.542 0 233.5 0C362.458 0 467 104.542 467 233.5Z" fill="#3AA2EB"/>
</mask>
<g mask="url(#mask0)">
<path d="M306.168 481.638H161.833C180.063 313.657 170.364 402.95 185.572 262.857H182.344C170.599 262.857 161.073 253.331 161.073 241.587C161.073 229.844 170.599 220.316 182.344 220.316V180.814C182.344 134.66 238.295 112.033 270.525 144.29C279.876 153.634 285.657 166.548 285.657 180.814V220.316C297.401 220.316 306.927 229.842 306.927 241.587C306.927 253.329 297.401 262.857 285.657 262.857H282.428C293.614 366.018 295.715 385.246 306.168 481.638Z" fill="#E8F8FC"/>
<path d="M285.657 180.814V220.316H182.344V180.814C182.344 134.659 238.295 112.034 270.525 144.29C279.876 153.633 285.657 166.548 285.657 180.814Z" fill="#EAD95B"/>
<path d="M246.155 202.084C235.683 202.084 227.163 193.565 227.163 183.093C227.163 172.621 235.683 164.102 246.155 164.102C256.626 164.102 265.146 172.621 265.146 183.093C265.146 193.565 256.626 202.084 246.155 202.084Z" fill="#D5C133"/>
<path d="M342.942 147.82C340.187 141.698 342.917 134.503 349.038 131.748L379.424 118.074C385.544 115.321 392.741 118.048 395.495 124.17C398.25 130.291 395.52 137.487 389.399 140.242L359.013 153.916C352.895 156.67 345.698 153.943 342.942 147.82Z" fill="#EAD95B"/>
<path d="M379.425 248.113L349.039 234.439C342.917 231.685 340.188 224.489 342.943 218.367C345.698 212.245 352.896 209.518 359.014 212.271L389.4 225.945C395.522 228.699 398.251 235.896 395.496 242.017C392.742 248.139 385.545 250.868 379.425 248.113Z" fill="#EAD95B"/>
<path d="M398.845 195.247H379.854C373.141 195.247 367.699 189.805 367.699 183.093C367.699 176.381 373.141 170.938 379.854 170.938H398.845C405.558 170.938 411 176.381 411 183.093C411 189.805 405.558 195.247 398.845 195.247Z" fill="#EAD95B"/>
<path d="M108.987 153.916L78.6003 140.242C72.479 137.487 69.7496 130.291 72.5041 124.17C75.2586 118.048 82.4533 115.319 88.5762 118.074L118.962 131.747C125.084 134.502 127.813 141.698 125.059 147.819C122.306 153.937 115.113 156.672 108.987 153.916Z" fill="#EAD95B"/>
<path d="M83.595 249.186C70.5882 249.186 66.6721 231.313 78.6002 225.945L108.986 212.271C115.107 209.516 122.303 212.245 125.059 218.367C127.813 224.488 125.084 231.684 118.962 234.439C85.9347 249.302 87.0947 249.186 83.595 249.186Z" fill="#EAD95B"/>
<path d="M88.1459 195.247H69.1545C62.4422 195.247 57 189.805 57 183.093C57 176.381 62.4422 170.938 69.1545 170.938H88.1459C94.8582 170.938 100.3 176.381 100.3 183.093C100.3 189.805 94.859 195.247 88.1459 195.247Z" fill="#EAD95B"/>
<path d="M286.15 235.472C271.66 235.456 245.525 235.51 197.537 235.51C187.883 235.51 180.018 241.844 177.291 250.244C175.224 256.606 166.352 257.121 163.339 251.149C156.113 236.82 166.847 220.316 182.807 220.316H285.656C296.867 220.316 295.877 235.482 286.15 235.472Z" fill="#F1FAFC"/>
<path d="M300.736 431.546L177.786 481.638H161.833L169.665 409.47L292.494 359.333C293.107 359.262 292.28 353.684 300.736 431.546Z" fill="#E1655B"/>
<path d="M282.428 262.857C285.177 288.21 285.027 286.395 284.897 286.407C173.661 331.696 178.672 329.72 178.317 329.684L185.572 262.857H282.428Z" fill="#E1655B"/>
<path d="M208.362 262.857C193.531 399.468 202.361 318.198 184.623 481.638H161.833C180.063 313.658 170.364 402.951 185.572 262.857H208.362Z" fill="#F1FAFC"/>
<path d="M193.511 399.739C191.82 415.321 186.479 464.556 184.942 478.721L177.786 481.638H161.833L169.665 409.47L193.511 399.739Z" fill="#ED837A"/>
<path d="M208.361 262.857L202.147 320.098L178.545 329.707C178.191 329.671 177.76 334.817 185.572 262.857H208.361Z" fill="#ED837A"/>
<path d="M203.48 139.173C216.776 129.623 232.036 147.852 220.394 159.36C211.071 168.576 205.132 181.392 205.132 196.007V220.316H182.343V180.814C182.344 162.631 191.012 148.127 203.48 139.173Z" fill="#F4E781"/>
</g>
</svg>
