<svg width="126" height="44" viewBox="0 0 126 44" fill="none" xmlns="http://www.w3.org/2000/svg">
<path d="M43.1452 21.5726C43.1452 33.4868 33.4868 43.1452 21.5726 43.1452C9.65838 43.1452 0 33.4868 0 21.5726C0 9.65838 9.65838 0 21.5726 0C33.4868 0 43.1452 9.65838 43.1452 21.5726Z" fill="#3AA2EB"/>
<path d="M53.3701 28.8246H59.8142C62.5858 28.8246 64.2488 27.231 64.2488 24.6672C64.2488 22.8656 62.8861 21.1333 61.2462 20.8793C62.632 20.6021 63.9485 19.2856 63.9485 17.3454C63.9485 14.9203 62.2625 13.4189 59.6987 13.4189H53.3701V28.8246ZM54.6866 20.3249V14.62H59.537C61.5234 14.62 62.5627 15.9134 62.5627 17.484C62.5627 19.0777 61.5234 20.3249 59.537 20.3249H54.6866ZM54.6866 27.6236V21.526H59.6294C61.7774 21.526 62.863 23.0042 62.863 24.5748C62.863 26.4457 61.6619 27.6236 59.6294 27.6236H54.6866Z" fill="#3AA2EB"/>
<path d="M66.8647 23.2352C66.8647 26.6766 69.1975 29.1018 72.4542 29.1018C74.302 29.1018 75.7109 28.4551 76.8195 27.3002L76.1959 26.5149C75.2258 27.5312 73.9555 28.0624 72.5235 28.0624C69.9135 28.0624 68.2967 26.053 68.1812 23.6278H77.5124V23.3045C77.5124 20.094 75.6416 17.3916 72.2463 17.3916C69.1513 17.3916 66.8647 20.0016 66.8647 23.2352ZM72.2232 18.431C75.018 18.431 76.2652 20.7869 76.2883 22.6808H68.1812C68.2736 20.7407 69.5902 18.431 72.2232 18.431Z" fill="#3AA2EB"/>
<path d="M87.7071 28.8246H88.9081V20.9717C88.9081 18.4772 87.1065 17.3916 84.8199 17.3916C82.9953 17.3916 81.7018 18.0152 80.547 19.2856L81.2168 20.094C82.2331 18.9391 83.3186 18.4541 84.7044 18.4541C86.3674 18.4541 87.7071 19.378 87.7071 21.0179V23.2814C86.7139 22.1958 85.4666 21.7108 83.9191 21.7108C81.979 21.7108 80.0158 22.958 80.0158 25.3832C80.0158 27.7853 82.0021 29.1018 83.9191 29.1018C85.4666 29.1018 86.7139 28.5937 87.7071 27.5081V28.8246ZM87.7071 26.6304C86.9218 27.6467 85.6745 28.1548 84.3349 28.1548C82.4871 28.1548 81.2861 26.9769 81.2861 25.4063C81.2861 23.8357 82.4871 22.6347 84.3349 22.6347C85.6745 22.6347 86.9218 23.1659 87.7071 24.1822V26.6304Z" fill="#3AA2EB"/>
<path d="M92.0143 23.2352C92.0143 26.4919 94.1623 29.1018 97.4421 29.1018C99.3591 29.1018 100.491 28.3396 101.392 27.1848L100.56 26.4457C99.7287 27.5543 98.7355 28.0163 97.5114 28.0163C94.9014 28.0163 93.3077 25.9144 93.3077 23.2352C93.3077 20.5559 94.9014 18.4772 97.5114 18.4772C98.7355 18.4772 99.7287 18.916 100.56 20.0247L101.392 19.2856C100.491 18.1538 99.3591 17.3916 97.4421 17.3916C94.1623 17.3916 92.0143 19.9785 92.0143 23.2352Z" fill="#3AA2EB"/>
<path d="M108.786 29.1018C112.089 29.1018 114.168 26.4919 114.168 23.2352C114.168 19.9785 112.089 17.3916 108.786 17.3916C105.529 17.3916 103.427 19.9785 103.427 23.2352C103.427 26.4919 105.529 29.1018 108.786 29.1018ZM108.786 28.0163C106.199 28.0163 104.721 25.7296 104.721 23.2352C104.721 20.7638 106.199 18.4772 108.786 18.4772C111.419 18.4772 112.874 20.7638 112.874 23.2352C112.874 25.7296 111.419 28.0163 108.786 28.0163Z" fill="#3AA2EB"/>
<path d="M124.799 28.8246H126V21.0179C126 18.5003 124.753 17.3916 122.489 17.3916C120.872 17.3916 119.279 18.3848 118.47 19.3549V17.6688H117.269V28.8246H118.47V20.3942C119.186 19.4011 120.664 18.4772 122.097 18.4772C123.713 18.4772 124.799 19.1239 124.799 21.295V28.8246Z" fill="#3AA2EB"/>
<mask id="mask0" mask-type="alpha" maskUnits="userSpaceOnUse" x="0" y="0" width="44" height="44">
<path d="M43.1452 21.5726C43.1452 33.4868 33.4868 43.1452 21.5726 43.1452C9.65838 43.1452 0 33.4868 0 21.5726C0 9.65838 9.65838 0 21.5726 0C33.4868 0 43.1452 9.65838 43.1452 21.5726Z" fill="#3AA2EB"/>
</mask>
<g mask="url(#mask0)">
<path d="M28.2868 44.4979H14.952C16.6363 28.9785 15.7402 37.2281 17.1452 24.2851H16.847C15.7619 24.2851 14.8818 23.405 14.8818 22.32C14.8818 21.2351 15.7619 20.3549 16.847 20.3549V16.7054C16.847 12.4413 22.0162 10.3508 24.9938 13.331C25.8578 14.1942 26.3919 15.3873 26.3919 16.7054V20.3549C27.4769 20.3549 28.357 21.235 28.357 22.32C28.357 23.4049 27.4769 24.2851 26.3919 24.2851H26.0936C27.127 33.816 27.3212 35.5924 28.2868 44.4979Z" fill="#E8F8FC"/>
<path d="M26.3916 16.7053V20.3549H16.8467V16.7053C16.8467 12.4412 22.0159 10.3509 24.9935 13.3309C25.8575 14.1942 26.3916 15.3873 26.3916 16.7053Z" fill="#EAD95B"/>
<path d="M22.7419 18.6693C21.7744 18.6693 20.9873 17.8822 20.9873 16.9147C20.9873 15.9473 21.7744 15.1602 22.7419 15.1602C23.7094 15.1602 24.4965 15.9473 24.4965 16.9147C24.4965 17.8822 23.7094 18.6693 22.7419 18.6693Z" fill="#D5C133"/>
<path d="M31.6841 13.6569C31.4297 13.0913 31.6818 12.4265 32.2474 12.172L35.0547 10.9087C35.6201 10.6544 36.285 10.9063 36.5395 11.4719C36.794 12.0374 36.5418 12.7022 35.9763 12.9568L33.1689 14.2201C32.6037 14.4745 31.9388 14.2226 31.6841 13.6569Z" fill="#EAD95B"/>
<path d="M35.0547 22.9222L32.2474 21.6589C31.6818 21.4044 31.4297 20.7396 31.6841 20.1741C31.9387 19.6085 32.6037 19.3565 33.1689 19.6108L35.9763 20.8741C36.5419 21.1286 36.794 21.7935 36.5395 22.359C36.285 22.9246 35.6201 23.1767 35.0547 22.9222Z" fill="#EAD95B"/>
<path d="M36.8492 18.0388H35.0946C34.4744 18.0388 33.9717 17.536 33.9717 16.9159C33.9717 16.2958 34.4744 15.793 35.0946 15.793H36.8492C37.4694 15.793 37.9721 16.2958 37.9721 16.9159C37.9721 17.536 37.4694 18.0388 36.8492 18.0388Z" fill="#EAD95B"/>
<path d="M10.0684 14.2201L7.26103 12.9568C6.69549 12.7024 6.44332 12.0375 6.69781 11.472C6.95229 10.9064 7.61699 10.6543 8.18267 10.9088L10.99 12.1721C11.5555 12.4265 11.8077 13.0914 11.5532 13.6569C11.2989 14.2221 10.6344 14.4748 10.0684 14.2201Z" fill="#EAD95B"/>
<path d="M7.72332 23.0215C6.52165 23.0215 6.15986 21.3702 7.26187 20.8742L10.0692 19.6109C10.6347 19.3564 11.2995 19.6085 11.5541 20.1741C11.8085 20.7397 11.5564 21.4044 10.9908 21.659C7.93949 23.0321 8.04666 23.0215 7.72332 23.0215Z" fill="#EAD95B"/>
<path d="M8.14411 18.0388H6.38953C5.76939 18.0388 5.2666 17.536 5.2666 16.9159C5.2666 16.2958 5.76939 15.793 6.38953 15.793H8.14411C8.76425 15.793 9.26704 16.2958 9.26704 16.9159C9.26704 17.536 8.76432 18.0388 8.14411 18.0388Z" fill="#EAD95B"/>
<path d="M26.4364 21.7546C25.0977 21.7532 22.6832 21.7582 18.2496 21.7582C17.3577 21.7582 16.6311 22.3434 16.3791 23.1194C16.1882 23.7072 15.3685 23.7548 15.0902 23.203C14.4225 21.8792 15.4142 20.3545 16.8888 20.3545H26.3908C27.4265 20.3545 27.335 21.7556 26.4364 21.7546Z" fill="#F1FAFC"/>
<path d="M27.7842 39.8694L16.425 44.4973H14.9512L15.6748 37.8299L27.0227 33.1978C27.0793 33.1913 27.0029 32.6759 27.7842 39.8694Z" fill="#E1655B"/>
<path d="M26.0922 24.2852C26.3462 26.6274 26.3323 26.4597 26.3203 26.4608C16.0435 30.645 16.5064 30.4625 16.4736 30.4592L17.1439 24.2852H26.0922Z" fill="#E1655B"/>
<path d="M19.2499 24.2852C17.8797 36.9063 18.6954 29.398 17.0567 44.4979H14.9512C16.6354 28.9785 15.7393 37.2281 17.1444 24.2852H19.2499Z" fill="#F1FAFC"/>
<path d="M17.8778 36.9307C17.7217 38.3702 17.2281 42.919 17.0861 44.2276L16.425 44.4971H14.9512L15.6748 37.8297L17.8778 36.9307Z" fill="#ED837A"/>
<path d="M19.2506 24.2852L18.6765 29.5735L16.4959 30.4613C16.4632 30.458 16.4234 30.9333 17.1451 24.2852H19.2506Z" fill="#ED837A"/>
<path d="M18.7995 12.8574C20.0279 11.9751 21.4377 13.6592 20.3622 14.7224C19.5008 15.5739 18.9522 16.7579 18.9522 18.1082V20.354H16.8467V16.7045C16.8467 15.0246 17.6476 13.6847 18.7995 12.8574Z" fill="#F4E781"/>
</g>
</svg>
