<svg width="136" height="45" viewBox="0 0 136 45" fill="none" xmlns="http://www.w3.org/2000/svg">
<path d="M44.5784 22.2892C44.5784 34.5992 34.5992 44.5784 22.2892 44.5784C9.97921 44.5784 0 34.5992 0 22.2892C0 9.97921 9.97921 0 22.2892 0C34.5992 0 44.5784 9.97921 44.5784 22.2892Z" fill="#156BEC"/>
<path d="M60.1431 29.7827H66.8012C69.6649 29.7827 71.3831 28.136 71.3831 25.4871C71.3831 23.6257 69.9751 21.8359 68.2808 21.5734C69.7126 21.287 71.0729 19.9268 71.0729 17.9222C71.0729 15.4164 69.3308 13.8652 66.6819 13.8652H60.1431V29.7827ZM61.5033 21.0006V15.1062H66.5148C68.5671 15.1062 69.641 16.4426 69.641 18.0653C69.641 19.712 68.5671 21.0006 66.5148 21.0006H61.5033ZM61.5033 28.5417V22.2416H66.6103C68.8296 22.2416 69.9513 23.7689 69.9513 25.3917C69.9513 27.3247 68.7103 28.5417 66.6103 28.5417H61.5033Z" fill="white"/>
<path d="M74.0859 24.0075C74.0859 27.5633 76.4962 30.069 79.8611 30.069C81.7702 30.069 83.2259 29.4009 84.3714 28.2076L83.7271 27.3963C82.7248 28.4463 81.4123 28.9952 79.9327 28.9952C77.236 28.9952 75.5655 26.919 75.4462 24.4132H85.0873V24.0791C85.0873 20.762 83.1543 17.9699 79.6463 17.9699C76.4485 17.9699 74.0859 20.6665 74.0859 24.0075ZM79.6224 19.0438C82.51 19.0438 83.7987 21.4779 83.8225 23.4348H75.4462C75.5416 21.4302 76.9019 19.0438 79.6224 19.0438Z" fill="white"/>
<path d="M95.6206 29.7827H96.8615V21.6688C96.8615 19.0915 95.0001 17.9699 92.6376 17.9699C90.7523 17.9699 89.4159 18.6142 88.2227 19.9268L88.9148 20.762C89.9648 19.5688 91.0864 19.0676 92.5183 19.0676C94.2365 19.0676 95.6206 20.0222 95.6206 21.7166V24.0553C94.5944 22.9336 93.3058 22.4325 91.7069 22.4325C89.7023 22.4325 87.6738 23.7212 87.6738 26.2269C87.6738 28.7088 89.7261 30.069 91.7069 30.069C93.3058 30.069 94.5944 29.544 95.6206 28.4224V29.7827ZM95.6206 27.5156C94.8092 28.5656 93.5206 29.0906 92.1364 29.0906C90.2273 29.0906 88.9863 27.8735 88.9863 26.2508C88.9863 24.628 90.2273 23.3871 92.1364 23.3871C93.5206 23.3871 94.8092 23.9359 95.6206 24.986V27.5156Z" fill="white"/>
<path d="M100.071 24.0075C100.071 27.3724 102.29 30.069 105.679 30.069C107.66 30.069 108.829 29.2815 109.76 28.0883L108.901 27.3247C108.042 28.4701 107.015 28.9474 105.751 28.9474C103.054 28.9474 101.407 26.7758 101.407 24.0075C101.407 21.2393 103.054 19.0915 105.751 19.0915C107.015 19.0915 108.042 19.5449 108.901 20.6904L109.76 19.9268C108.829 18.7574 107.66 17.9699 105.679 17.9699C102.29 17.9699 100.071 20.6427 100.071 24.0075Z" fill="white"/>
<path d="M117.4 30.069C120.812 30.069 122.96 27.3724 122.96 24.0075C122.96 20.6427 120.812 17.9699 117.4 17.9699C114.035 17.9699 111.863 20.6427 111.863 24.0075C111.863 27.3724 114.035 30.069 117.4 30.069ZM117.4 28.9474C114.727 28.9474 113.2 26.5849 113.2 24.0075C113.2 21.4541 114.727 19.0915 117.4 19.0915C120.12 19.0915 121.624 21.4541 121.624 24.0075C121.624 26.5849 120.12 28.9474 117.4 28.9474Z" fill="white"/>
<path d="M133.945 29.7827H135.185V21.7166C135.185 19.1154 133.897 17.9699 131.558 17.9699C129.888 17.9699 128.241 18.996 127.406 19.9983V18.2563H126.165V29.7827H127.406V21.0722C128.146 20.0461 129.673 19.0915 131.152 19.0915C132.823 19.0915 133.945 19.7597 133.945 22.0029V29.7827Z" fill="white"/>
<path d="M60.1431 29.7827H66.8012C69.6649 29.7827 71.3831 28.136 71.3831 25.4871C71.3831 23.6257 69.9751 21.8359 68.2808 21.5734C69.7126 21.287 71.0729 19.9268 71.0729 17.9222C71.0729 15.4164 69.3308 13.8652 66.6819 13.8652H60.1431V29.7827ZM61.5033 21.0006V15.1062H66.5148C68.5671 15.1062 69.641 16.4426 69.641 18.0653C69.641 19.712 68.5671 21.0006 66.5148 21.0006H61.5033ZM61.5033 28.5417V22.2416H66.6103C68.8296 22.2416 69.9513 23.7689 69.9513 25.3917C69.9513 27.3247 68.7103 28.5417 66.6103 28.5417H61.5033Z" stroke="white"/>
<path d="M74.0859 24.0075C74.0859 27.5633 76.4962 30.069 79.8611 30.069C81.7702 30.069 83.2259 29.4009 84.3714 28.2076L83.7271 27.3963C82.7248 28.4463 81.4123 28.9952 79.9327 28.9952C77.236 28.9952 75.5655 26.919 75.4462 24.4132H85.0873V24.0791C85.0873 20.762 83.1543 17.9699 79.6463 17.9699C76.4485 17.9699 74.0859 20.6665 74.0859 24.0075ZM79.6224 19.0438C82.51 19.0438 83.7987 21.4779 83.8225 23.4348H75.4462C75.5416 21.4302 76.9019 19.0438 79.6224 19.0438Z" stroke="white"/>
<path d="M95.6206 29.7827H96.8615V21.6688C96.8615 19.0915 95.0001 17.9699 92.6376 17.9699C90.7523 17.9699 89.4159 18.6142 88.2227 19.9268L88.9148 20.762C89.9648 19.5688 91.0864 19.0676 92.5183 19.0676C94.2365 19.0676 95.6206 20.0222 95.6206 21.7166V24.0553C94.5944 22.9336 93.3058 22.4325 91.7069 22.4325C89.7023 22.4325 87.6738 23.7212 87.6738 26.2269C87.6738 28.7088 89.7261 30.069 91.7069 30.069C93.3058 30.069 94.5944 29.544 95.6206 28.4224V29.7827ZM95.6206 27.5156C94.8092 28.5656 93.5206 29.0906 92.1364 29.0906C90.2273 29.0906 88.9863 27.8735 88.9863 26.2508C88.9863 24.628 90.2273 23.3871 92.1364 23.3871C93.5206 23.3871 94.8092 23.9359 95.6206 24.986V27.5156Z" stroke="white"/>
<path d="M100.071 24.0075C100.071 27.3724 102.29 30.069 105.679 30.069C107.66 30.069 108.829 29.2815 109.76 28.0883L108.901 27.3247C108.042 28.4701 107.015 28.9474 105.751 28.9474C103.054 28.9474 101.407 26.7758 101.407 24.0075C101.407 21.2393 103.054 19.0915 105.751 19.0915C107.015 19.0915 108.042 19.5449 108.901 20.6904L109.76 19.9268C108.829 18.7574 107.66 17.9699 105.679 17.9699C102.29 17.9699 100.071 20.6427 100.071 24.0075Z" stroke="white"/>
<path d="M117.4 30.069C120.812 30.069 122.96 27.3724 122.96 24.0075C122.96 20.6427 120.812 17.9699 117.4 17.9699C114.035 17.9699 111.863 20.6427 111.863 24.0075C111.863 27.3724 114.035 30.069 117.4 30.069ZM117.4 28.9474C114.727 28.9474 113.2 26.5849 113.2 24.0075C113.2 21.4541 114.727 19.0915 117.4 19.0915C120.12 19.0915 121.624 21.4541 121.624 24.0075C121.624 26.5849 120.12 28.9474 117.4 28.9474Z" stroke="white"/>
<path d="M133.945 29.7827H135.185V21.7166C135.185 19.1154 133.897 17.9699 131.558 17.9699C129.888 17.9699 128.241 18.996 127.406 19.9983V18.2563H126.165V29.7827H127.406V21.0722C128.146 20.0461 129.673 19.0915 131.152 19.0915C132.823 19.0915 133.945 19.7597 133.945 22.0029V29.7827Z" stroke="white"/>
<mask id="mask0" mask-type="alpha" maskUnits="userSpaceOnUse" x="0" y="0" width="45" height="45">
<path d="M44.5784 22.2892C44.5784 34.5992 34.5992 44.5784 22.2892 44.5784C9.97921 44.5784 0 34.5992 0 22.2892C0 9.97921 9.97921 0 22.2892 0C34.5992 0 44.5784 9.97921 44.5784 22.2892Z" fill="#2F2D2E"/>
</mask>
<g mask="url(#mask0)">
<path d="M29.6424 46.0557H15.031C16.8765 29.9065 15.8946 38.4909 17.4342 25.0227H17.1074C15.9185 25.0227 14.9541 24.1069 14.9541 22.9779C14.9541 21.8489 15.9185 20.933 17.1074 20.933V17.1354C17.1074 12.6983 22.7714 10.523 26.0341 13.624C26.9808 14.5223 27.566 15.7638 27.566 17.1354V20.933C28.7549 20.933 29.7193 21.8488 29.7193 22.9779C29.7193 24.1068 28.7549 25.0227 27.566 25.0227H27.2392C28.3715 34.9404 28.5843 36.7889 29.6424 46.0557Z" fill="#E8F8FC"/>
<path d="M27.5661 17.1354V20.933H17.1074V17.1354C17.1074 12.6982 22.7715 10.523 26.0342 13.624C26.9809 14.5223 27.5661 15.7638 27.5661 17.1354Z" fill="#EAD95B"/>
<path d="M23.5671 19.1794C22.507 19.1794 21.6445 18.3603 21.6445 17.3536C21.6445 16.3469 22.507 15.5278 23.5671 15.5278C24.6272 15.5278 25.4896 16.3469 25.4896 17.3536C25.4896 18.3603 24.6272 19.1794 23.5671 19.1794Z" fill="#D5C133"/>
<path d="M33.3655 13.9628C33.0867 13.3743 33.363 12.6826 33.9826 12.4177L37.0587 11.1031C37.6782 10.8385 38.4068 11.1007 38.6857 11.6892C38.9645 12.2777 38.6882 12.9695 38.0685 13.2343L34.9924 14.5489C34.3731 14.8136 33.6445 14.5515 33.3655 13.9628Z" fill="#EAD95B"/>
<path d="M37.0587 23.6051L33.9827 22.2905C33.3629 22.0257 33.0867 21.3339 33.3655 20.7454C33.6444 20.1568 34.3731 19.8946 34.9925 20.1593L38.0685 21.4739C38.6883 21.7387 38.9645 22.4305 38.6857 23.019C38.4068 23.6075 37.6783 23.8699 37.0587 23.6051Z" fill="#EAD95B"/>
<path d="M39.0246 18.5225H37.102C36.4224 18.5225 35.8716 17.9994 35.8716 17.354C35.8716 16.7087 36.4224 16.1855 37.102 16.1855H39.0246C39.7041 16.1855 40.255 16.7087 40.255 17.354C40.255 17.9994 39.7041 18.5225 39.0246 18.5225Z" fill="#EAD95B"/>
<path d="M9.68127 14.549L6.6052 13.2344C5.98552 12.9696 5.70922 12.2778 5.98806 11.6893C6.26691 11.1007 6.99525 10.8384 7.61507 11.1032L10.6912 12.4178C11.3108 12.6826 11.5871 13.3744 11.3083 13.9629C11.0296 14.551 10.3015 14.8139 9.68127 14.549Z" fill="#EAD95B"/>
<path d="M7.11099 23.7083C5.79427 23.7083 5.39784 21.99 6.60536 21.4739L9.68143 20.1594C10.301 19.8946 11.0295 20.1569 11.3084 20.7454C11.5873 21.3339 11.311 22.0257 10.6913 22.2906C7.34784 23.7194 7.46527 23.7083 7.11099 23.7083Z" fill="#EAD95B"/>
<path d="M7.57144 18.5225H5.64889C4.96938 18.5225 4.41846 17.9994 4.41846 17.354C4.41846 16.7087 4.96938 16.1855 5.64889 16.1855H7.57144C8.25094 16.1855 8.80187 16.7087 8.80187 17.354C8.80187 17.9994 8.25102 18.5225 7.57144 18.5225Z" fill="#EAD95B"/>
<path d="M27.6162 22.3896C26.1493 22.3881 23.5036 22.3932 18.6456 22.3932C17.6684 22.3932 16.8722 23.0022 16.5961 23.8098C16.3869 24.4214 15.4887 24.4709 15.1837 23.8967C14.4522 22.5192 15.5388 20.9326 17.1545 20.9326H27.5662C28.701 20.9326 28.6008 22.3906 27.6162 22.3896Z" fill="#F1FAFC"/>
<path d="M29.0928 41.2402L16.6462 46.0558H15.0312L15.8241 39.1179L28.2584 34.2978C28.3204 34.291 28.2368 33.7548 29.0928 41.2402Z" fill="#E1655B"/>
<path d="M27.2391 25.0225C27.5173 27.4598 27.5022 27.2853 27.489 27.2864C16.2284 31.6404 16.7356 31.4504 16.6997 31.447L17.4341 25.0225H27.2391Z" fill="#E1655B"/>
<path d="M19.7415 25.0225C18.2401 38.1558 19.134 30.3428 17.3383 46.0554H15.0312C16.8767 29.9063 15.8949 38.4907 17.4344 25.0225H19.7415Z" fill="#F1FAFC"/>
<path d="M18.2381 38.1821C18.067 39.6801 17.5262 44.4134 17.3706 45.7752L16.6462 46.0556H15.0312L15.8241 39.1177L18.2381 38.1821Z" fill="#ED837A"/>
<path d="M19.7413 25.0225L19.1122 30.5254L16.7229 31.4492C16.687 31.4458 16.6434 31.9404 17.4342 25.0225H19.7413Z" fill="#ED837A"/>
<path d="M19.2472 13.1315C20.5932 12.2135 22.138 13.9659 20.9594 15.0723C20.0156 15.9583 19.4145 17.1904 19.4145 18.5954V20.9324H17.1074V17.1348C17.1075 15.3867 17.985 13.9924 19.2472 13.1315Z" fill="#F4E781"/>
</g>
</svg>
