<svg width="136" height="45" viewBox="0 0 136 45" fill="none" xmlns="http://www.w3.org/2000/svg">
<path d="M44.5784 22.2892C44.5784 34.5992 34.5992 44.5784 22.2892 44.5784C9.97921 44.5784 0 34.5992 0 22.2892C0 9.97921 9.97921 0 22.2892 0C34.5992 0 44.5784 9.97921 44.5784 22.2892Z" fill="#156BEC"/>
<path d="M60.1431 29.7827H66.8012C69.6649 29.7827 71.3831 28.136 71.3831 25.4871C71.3831 23.6257 69.9751 21.8359 68.2808 21.5734C69.7126 21.287 71.0729 19.9268 71.0729 17.9222C71.0729 15.4164 69.3308 13.8652 66.6819 13.8652H60.1431V29.7827ZM61.5033 21.0006V15.1062H66.5148C68.5671 15.1062 69.641 16.4426 69.641 18.0653C69.641 19.712 68.5671 21.0006 66.5148 21.0006H61.5033ZM61.5033 28.5417V22.2416H66.6103C68.8296 22.2416 69.9513 23.7689 69.9513 25.3917C69.9513 27.3247 68.7103 28.5417 66.6103 28.5417H61.5033Z" fill="#156BEC"/>
<path d="M74.0859 24.0075C74.0859 27.5633 76.4962 30.069 79.8611 30.069C81.7702 30.069 83.2259 29.4009 84.3714 28.2076L83.7271 27.3963C82.7248 28.4463 81.4123 28.9952 79.9327 28.9952C77.236 28.9952 75.5655 26.919 75.4462 24.4132H85.0873V24.0791C85.0873 20.762 83.1543 17.9699 79.6463 17.9699C76.4485 17.9699 74.0859 20.6665 74.0859 24.0075ZM79.6224 19.0438C82.51 19.0438 83.7987 21.4779 83.8225 23.4348H75.4462C75.5416 21.4302 76.9019 19.0438 79.6224 19.0438Z" fill="#156BEC"/>
<path d="M95.6206 29.7827H96.8615V21.6688C96.8615 19.0915 95.0001 17.9699 92.6376 17.9699C90.7523 17.9699 89.4159 18.6142 88.2227 19.9268L88.9148 20.762C89.9648 19.5688 91.0864 19.0676 92.5183 19.0676C94.2365 19.0676 95.6206 20.0222 95.6206 21.7166V24.0553C94.5944 22.9336 93.3058 22.4325 91.7069 22.4325C89.7023 22.4325 87.6738 23.7212 87.6738 26.2269C87.6738 28.7088 89.7261 30.069 91.7069 30.069C93.3058 30.069 94.5944 29.544 95.6206 28.4224V29.7827ZM95.6206 27.5156C94.8092 28.5656 93.5206 29.0906 92.1364 29.0906C90.2273 29.0906 88.9863 27.8735 88.9863 26.2508C88.9863 24.628 90.2273 23.3871 92.1364 23.3871C93.5206 23.3871 94.8092 23.9359 95.6206 24.986V27.5156Z" fill="#156BEC"/>
<path d="M100.071 24.0075C100.071 27.3724 102.29 30.069 105.679 30.069C107.66 30.069 108.829 29.2815 109.76 28.0883L108.901 27.3247C108.042 28.4701 107.015 28.9474 105.751 28.9474C103.054 28.9474 101.407 26.7758 101.407 24.0075C101.407 21.2393 103.054 19.0915 105.751 19.0915C107.015 19.0915 108.042 19.5449 108.901 20.6904L109.76 19.9268C108.829 18.7574 107.66 17.9699 105.679 17.9699C102.29 17.9699 100.071 20.6427 100.071 24.0075Z" fill="#156BEC"/>
<path d="M117.4 30.069C120.812 30.069 122.96 27.3724 122.96 24.0075C122.96 20.6427 120.812 17.9699 117.4 17.9699C114.035 17.9699 111.863 20.6427 111.863 24.0075C111.863 27.3724 114.035 30.069 117.4 30.069ZM117.4 28.9474C114.727 28.9474 113.2 26.5849 113.2 24.0075C113.2 21.4541 114.727 19.0915 117.4 19.0915C120.12 19.0915 121.624 21.4541 121.624 24.0075C121.624 26.5849 120.12 28.9474 117.4 28.9474Z" fill="#156BEC"/>
<path d="M133.945 29.7827H135.185V21.7166C135.185 19.1154 133.897 17.9699 131.558 17.9699C129.888 17.9699 128.241 18.996 127.406 19.9983V18.2563H126.165V29.7827H127.406V21.0722C128.146 20.0461 129.673 19.0915 131.152 19.0915C132.823 19.0915 133.945 19.7597 133.945 22.0029V29.7827Z" fill="#156BEC"/>
<path fill-rule="evenodd" clip-rule="evenodd" d="M59.6431 13.3652H66.6819C68.1022 13.3652 69.33 13.7821 70.2081 14.585C71.0914 15.3927 71.5729 16.5476 71.5729 17.9222C71.5729 19.5731 70.7457 20.8541 69.6481 21.5494C70.9664 22.329 71.8831 23.8955 71.8831 25.4871C71.8831 26.9229 71.4145 28.1381 70.5091 28.992C69.6072 29.8427 68.3274 30.2827 66.8012 30.2827H59.6431V13.3652ZM68.6529 20.9416C69.6766 20.528 70.5729 19.4527 70.5729 17.9222C70.5729 16.791 70.1834 15.9174 69.5333 15.323C68.8782 14.724 67.9104 14.3652 66.6819 14.3652H60.6431V29.2827H66.8012C68.1387 29.2827 69.1499 28.8994 69.823 28.2645C70.4927 27.6329 70.8831 26.7003 70.8831 25.4871C70.8831 23.9183 69.743 22.4403 68.4128 22.1096C68.825 22.2986 69.1804 22.5544 69.4748 22.8629C70.1314 23.5512 70.4513 24.4671 70.4513 25.3917C70.4513 26.4678 70.1031 27.396 69.4133 28.0535C68.7261 28.7084 67.7558 29.0417 66.6103 29.0417H61.0033V21.7416H66.6103C67.2034 21.7416 67.7362 21.8408 68.2032 22.0212L68.185 21.1856C67.7016 21.3912 67.1411 21.5006 66.5148 21.5006H61.0033V14.6062H66.5148C67.6538 14.6062 68.5718 14.98 69.205 15.6277C69.8349 16.2719 70.141 17.144 70.141 18.0653C70.141 18.9976 69.8354 19.8661 69.2021 20.503C69.0376 20.6685 68.8541 20.8151 68.6529 20.9416ZM62.0033 15.6062V20.5006H66.5148C67.4335 20.5006 68.0785 20.2148 68.493 19.7979C68.9097 19.3789 69.141 18.7797 69.141 18.0653C69.141 17.3639 68.9102 16.7565 68.49 16.3268C68.0733 15.9006 67.4282 15.6062 66.5148 15.6062H62.0033ZM73.5859 24.0075C73.5859 20.4374 76.1276 17.4699 79.6463 17.4699C81.546 17.4699 83.0486 18.2318 84.0674 19.4616C85.0775 20.6809 85.5873 22.3281 85.5873 24.0791V24.9132H75.9958C76.2928 26.9569 77.7424 28.4952 79.9327 28.4952C81.2802 28.4952 82.4605 27.999 83.3654 27.051L83.7617 26.6358L85.0346 28.2388L84.7321 28.5539C83.4914 29.8463 81.905 30.569 79.8611 30.569C76.1988 30.569 73.5859 27.8177 73.5859 24.0075ZM79.6463 18.4699C76.7694 18.4699 74.5859 20.8957 74.5859 24.0075C74.5859 27.3089 76.7936 29.569 79.8611 29.569C81.4642 29.569 82.7005 29.0681 83.6988 28.1646L83.6752 28.135C82.6374 29.0302 81.3496 29.4952 79.9327 29.4952C76.9131 29.4952 75.0759 27.1496 74.9468 24.437L74.9228 23.9348H74.9218L74.9223 23.924L74.9218 23.9132H74.9228L74.9468 23.411C74.999 22.3148 75.395 21.111 76.1627 20.1712C76.9404 19.2192 78.0979 18.5438 79.6224 18.5438C81.2246 18.5438 82.4095 19.2265 83.186 20.1921C83.9509 21.1433 84.3094 22.3531 84.3225 23.4287L84.3284 23.9132H84.5856C84.5545 22.4137 84.1012 21.07 83.2973 20.0996C82.4725 19.104 81.2546 18.4699 79.6463 18.4699ZM87.8527 19.5904C89.1366 18.1781 90.6055 17.4699 92.6376 17.4699C93.8893 17.4699 95.0687 17.766 95.946 18.4609C96.841 19.1699 97.3615 20.247 97.3615 21.6688V30.2827H95.1206V29.539C94.1539 30.2385 93.016 30.569 91.7069 30.569C89.5264 30.569 87.1738 29.0556 87.1738 26.2269C87.1738 24.8252 87.7471 23.7367 88.6173 23.0069C89.4768 22.2862 90.6033 21.9325 91.7069 21.9325C93.0125 21.9325 94.1515 22.2475 95.1206 22.9422V21.7166C95.1206 21.02 94.8426 20.5015 94.4007 20.1465C93.9473 19.7824 93.29 19.5676 92.5183 19.5676C91.2376 19.5676 90.2503 20.0012 89.2901 21.0923L88.9033 21.5319L87.5608 19.9116L87.8527 19.5904ZM91.4198 22.9423C90.619 22.9973 89.846 23.2816 89.2599 23.7732C88.6148 24.3142 88.1738 25.1228 88.1738 26.2269C88.1738 28.351 89.9079 29.5566 91.6794 29.569C90.8123 29.4853 90.0644 29.1622 89.5062 28.6465C88.8501 28.0404 88.4863 27.1951 88.4863 26.2508C88.4863 25.307 88.8496 24.4568 89.504 23.8451C90.0054 23.3765 90.6609 23.0628 91.4198 22.9423ZM96.1206 29.2827H96.3615V21.6688C96.3615 20.5133 95.9514 19.741 95.3251 19.2448C94.681 18.7346 93.7484 18.4699 92.6376 18.4699C91.0553 18.4699 89.9158 18.9507 88.8926 19.9515L88.941 20.01C89.975 19.0121 91.1188 18.5676 92.5183 18.5676C93.4647 18.5676 94.3586 18.8302 95.0269 19.3669C95.7066 19.9128 96.1206 20.7188 96.1206 21.7166V29.2827ZM99.5709 24.0075C99.5709 20.4181 101.965 17.4699 105.679 17.4699C106.739 17.4699 107.608 17.6814 108.345 18.0667C109.08 18.4509 109.656 18.9934 110.151 19.6154L110.446 19.9859L108.827 21.4251L108.501 20.9904C107.739 19.9749 106.863 19.5915 105.751 19.5915C104.546 19.5915 103.601 20.066 102.949 20.8348C102.29 21.6116 101.907 22.7193 101.907 24.0075C101.907 25.2959 102.29 26.4103 102.95 27.1935C103.603 27.9684 104.548 28.4474 105.751 28.4474C106.856 28.4474 107.735 28.0456 108.501 27.0247L108.827 26.5899L110.442 28.0261L110.154 28.3958C109.659 29.0307 109.082 29.5804 108.346 29.9684C107.608 30.3576 106.739 30.569 105.679 30.569C101.963 30.569 99.5709 27.5942 99.5709 24.0075ZM105.679 18.4699C102.615 18.4699 100.571 20.8672 100.571 24.0075C100.571 27.1506 102.618 29.569 105.679 29.569C106.6 29.569 107.305 29.3868 107.88 29.0839C108.327 28.8483 108.712 28.5306 109.065 28.1397L108.956 28.0427C108.069 29.0169 107.007 29.4474 105.751 29.4474C104.256 29.4474 103.03 28.8406 102.185 27.8377C101.347 26.843 100.907 25.4874 100.907 24.0075C100.907 22.5275 101.348 21.1772 102.186 20.188C103.032 19.1909 104.258 18.5915 105.751 18.5915C107.002 18.5915 108.065 18.9995 108.955 19.9728L109.061 19.8786C108.71 19.4974 108.326 19.1854 107.882 18.9529C107.306 18.6522 106.6 18.4699 105.679 18.4699ZM111.363 24.0075C111.363 20.4257 113.703 17.4699 117.4 17.4699C119.246 17.4699 120.773 18.197 121.834 19.3955C122.889 20.5881 123.46 22.2206 123.46 24.0075C123.46 25.7943 122.89 27.4322 121.835 28.6305C120.775 29.8348 119.247 30.569 117.4 30.569C113.701 30.569 111.363 27.5866 111.363 24.0075ZM117.4 18.4699C114.367 18.4699 112.363 20.8596 112.363 24.0075C112.363 27.1582 114.369 29.569 117.4 29.569C118.965 29.569 120.217 28.955 121.084 27.9698C121.957 26.9785 122.46 25.5856 122.46 24.0075C122.46 22.4296 121.957 21.0433 121.085 20.0582C120.219 19.0791 118.966 18.4699 117.4 18.4699ZM127.906 18.8321C128.871 18.0772 130.195 17.4699 131.558 17.4699C132.802 17.4699 133.859 17.7746 134.601 18.5134C135.344 19.2525 135.685 20.3401 135.685 21.7166V30.2827H133.445V22.0029C133.445 20.9574 133.184 20.3916 132.837 20.075C132.483 19.7504 131.935 19.5915 131.152 19.5915C129.917 19.5915 128.598 20.3711 127.906 21.2402V30.2827H125.665V17.7563H127.906V18.8321ZM126.906 18.7563H126.665V29.2827H126.906V18.7563ZM130.251 18.6897C130.548 18.6262 130.85 18.5915 131.152 18.5915C132.04 18.5915 132.889 18.7667 133.512 19.3371C134.145 19.9153 134.445 20.8052 134.445 22.0029V29.2827H134.685V21.7166C134.685 20.4918 134.382 19.706 133.896 19.2222C133.409 18.7379 132.653 18.4699 131.558 18.4699C131.118 18.4699 130.676 18.5513 130.251 18.6897ZM76.0014 22.9348C76.125 22.1824 76.4377 21.4153 76.9371 20.8039C77.5436 20.0615 78.4264 19.5438 79.6224 19.5438C80.9078 19.5438 81.8111 20.0781 82.4067 20.8188C82.8998 21.4319 83.1889 22.197 83.2859 22.9348H76.0014ZM114.69 20.9012C114.054 21.7095 113.7 22.8247 113.7 24.0075C113.7 25.2032 114.055 26.3244 114.691 27.1354C115.319 27.9358 116.227 28.4474 117.4 28.4474C118.598 28.4474 119.512 27.9337 120.138 27.1354C120.774 26.3256 121.124 25.205 121.124 24.0075C121.124 22.823 120.774 21.7083 120.139 20.9012C119.513 20.1053 118.599 19.5915 117.4 19.5915C116.227 19.5915 115.318 20.1033 114.69 20.9012ZM113.904 20.2828C114.708 19.261 115.899 18.5915 117.4 18.5915C118.921 18.5915 120.119 19.259 120.925 20.2828C121.722 21.2953 122.124 22.6386 122.124 24.0075C122.124 25.3874 121.722 26.7367 120.925 27.7526C120.12 28.7798 118.921 29.4474 117.4 29.4474C115.899 29.4474 114.708 28.7778 113.904 27.7526C113.108 26.7379 112.7 25.3892 112.7 24.0075C112.7 22.6369 113.109 21.2941 113.904 20.2828ZM62.0033 22.7416H66.6103C67.5985 22.7416 68.2978 23.078 68.7513 23.5532C69.2103 24.0343 69.4513 24.6934 69.4513 25.3917C69.4513 26.2485 69.179 26.8953 68.7233 27.3296C68.265 27.7665 67.5648 28.0417 66.6103 28.0417H62.0033V22.7416ZM90.1869 24.5756C89.7435 24.9901 89.4863 25.5717 89.4863 26.2508C89.4863 26.9292 89.743 27.5039 90.1848 27.912C90.6284 28.3219 91.289 28.5906 92.1364 28.5906C93.3371 28.5906 94.417 28.1588 95.1206 27.338V25.1633C94.4137 24.3366 93.3311 23.8871 92.1364 23.8871C91.2916 23.8871 90.6315 24.1601 90.1869 24.5756Z" fill="#156BEC"/>
<mask id="mask0" mask-type="alpha" maskUnits="userSpaceOnUse" x="0" y="0" width="45" height="45">
<path d="M44.5784 22.2892C44.5784 34.5992 34.5992 44.5784 22.2892 44.5784C9.97921 44.5784 0 34.5992 0 22.2892C0 9.97921 9.97921 0 22.2892 0C34.5992 0 44.5784 9.97921 44.5784 22.2892Z" fill="#2F2D2E"/>
</mask>
<g mask="url(#mask0)">
<path d="M29.6424 46.0557H15.031C16.8765 29.9065 15.8946 38.4909 17.4342 25.0227H17.1074C15.9185 25.0227 14.9541 24.1069 14.9541 22.9779C14.9541 21.8489 15.9185 20.933 17.1074 20.933V17.1354C17.1074 12.6983 22.7714 10.523 26.0341 13.624C26.9808 14.5223 27.566 15.7638 27.566 17.1354V20.933C28.7549 20.933 29.7193 21.8488 29.7193 22.9779C29.7193 24.1068 28.7549 25.0227 27.566 25.0227H27.2392C28.3715 34.9404 28.5843 36.7889 29.6424 46.0557Z" fill="#E8F8FC"/>
<path d="M27.5661 17.1354V20.933H17.1074V17.1354C17.1074 12.6982 22.7715 10.523 26.0342 13.624C26.9809 14.5223 27.5661 15.7638 27.5661 17.1354Z" fill="#EAD95B"/>
<path d="M23.5671 19.1794C22.507 19.1794 21.6445 18.3603 21.6445 17.3536C21.6445 16.3469 22.507 15.5278 23.5671 15.5278C24.6272 15.5278 25.4896 16.3469 25.4896 17.3536C25.4896 18.3603 24.6272 19.1794 23.5671 19.1794Z" fill="#D5C133"/>
<path d="M33.3655 13.9628C33.0867 13.3743 33.363 12.6826 33.9826 12.4177L37.0587 11.1031C37.6782 10.8385 38.4068 11.1007 38.6857 11.6892C38.9645 12.2777 38.6882 12.9695 38.0685 13.2343L34.9924 14.5489C34.3731 14.8136 33.6445 14.5515 33.3655 13.9628Z" fill="#EAD95B"/>
<path d="M37.0587 23.6051L33.9827 22.2905C33.3629 22.0257 33.0867 21.3339 33.3655 20.7454C33.6444 20.1568 34.3731 19.8946 34.9925 20.1593L38.0685 21.4739C38.6883 21.7387 38.9645 22.4305 38.6857 23.019C38.4068 23.6075 37.6783 23.8699 37.0587 23.6051Z" fill="#EAD95B"/>
<path d="M39.0246 18.5225H37.102C36.4224 18.5225 35.8716 17.9994 35.8716 17.354C35.8716 16.7087 36.4224 16.1855 37.102 16.1855H39.0246C39.7041 16.1855 40.255 16.7087 40.255 17.354C40.255 17.9994 39.7041 18.5225 39.0246 18.5225Z" fill="#EAD95B"/>
<path d="M9.68127 14.549L6.6052 13.2344C5.98552 12.9696 5.70922 12.2778 5.98806 11.6893C6.26691 11.1007 6.99525 10.8384 7.61507 11.1032L10.6912 12.4178C11.3108 12.6826 11.5871 13.3744 11.3083 13.9629C11.0296 14.551 10.3015 14.8139 9.68127 14.549Z" fill="#EAD95B"/>
<path d="M7.11099 23.7083C5.79427 23.7083 5.39784 21.99 6.60536 21.4739L9.68143 20.1594C10.301 19.8946 11.0295 20.1569 11.3084 20.7454C11.5873 21.3339 11.311 22.0257 10.6913 22.2906C7.34784 23.7194 7.46527 23.7083 7.11099 23.7083Z" fill="#EAD95B"/>
<path d="M7.57144 18.5225H5.64889C4.96938 18.5225 4.41846 17.9994 4.41846 17.354C4.41846 16.7087 4.96938 16.1855 5.64889 16.1855H7.57144C8.25094 16.1855 8.80187 16.7087 8.80187 17.354C8.80187 17.9994 8.25102 18.5225 7.57144 18.5225Z" fill="#EAD95B"/>
<path d="M27.6162 22.3896C26.1493 22.3881 23.5036 22.3932 18.6456 22.3932C17.6684 22.3932 16.8722 23.0022 16.5961 23.8098C16.3869 24.4214 15.4887 24.4709 15.1837 23.8967C14.4522 22.5192 15.5388 20.9326 17.1545 20.9326H27.5662C28.701 20.9326 28.6008 22.3906 27.6162 22.3896Z" fill="#F1FAFC"/>
<path d="M29.0928 41.2402L16.6462 46.0558H15.0312L15.8241 39.1179L28.2584 34.2978C28.3204 34.291 28.2368 33.7548 29.0928 41.2402Z" fill="#E1655B"/>
<path d="M27.2391 25.0225C27.5173 27.4598 27.5022 27.2853 27.489 27.2864C16.2284 31.6404 16.7356 31.4504 16.6997 31.447L17.4341 25.0225H27.2391Z" fill="#E1655B"/>
<path d="M19.7415 25.0225C18.2401 38.1558 19.134 30.3428 17.3383 46.0554H15.0312C16.8767 29.9063 15.8949 38.4907 17.4344 25.0225H19.7415Z" fill="#F1FAFC"/>
<path d="M18.2381 38.1821C18.067 39.6801 17.5262 44.4134 17.3706 45.7752L16.6462 46.0556H15.0312L15.8241 39.1177L18.2381 38.1821Z" fill="#ED837A"/>
<path d="M19.7413 25.0225L19.1122 30.5254L16.7229 31.4492C16.687 31.4458 16.6434 31.9404 17.4342 25.0225H19.7413Z" fill="#ED837A"/>
<path d="M19.2472 13.1315C20.5932 12.2135 22.138 13.9659 20.9594 15.0723C20.0156 15.9583 19.4145 17.1904 19.4145 18.5954V20.9324H17.1074V17.1348C17.1075 15.3867 17.985 13.9924 19.2472 13.1315Z" fill="#F4E781"/>
</g>
</svg>
